# Blender v2.79 (sub 0) OBJ File: 'berryBush.blend'
# www.blender.org
mtllib berryBush.mtl
o Icosphere
v 0.744562 0.221795 0.555621
v -0.280390 0.211019 0.866034
v -0.924905 0.236901 0.000000
v -0.276388 0.236897 -0.850649
v 0.766893 0.216068 -0.538787
v 0.289391 1.036241 0.883311
v -0.663284 1.032493 0.500348
v -0.723607 1.028431 -0.525725
v 0.271467 1.080522 -0.944926
v 0.942459 1.092891 0.026284
v 0.000000 1.581211 0.000000
v -0.166458 -0.015068 0.515380
v 0.425323 0.010810 0.309011
v 0.279822 0.117399 0.854292
v 0.895523 0.137052 -0.014217
v 0.470594 0.011999 -0.401546
v -0.525730 0.010812 0.000000
v -0.688189 0.158380 0.499997
v -0.117184 0.011999 -0.592529
v -0.732021 0.146462 -0.534514
v 0.308140 0.159568 -0.901546
v 1.001329 0.683962 0.327208
v 1.043640 0.677758 -0.357890
v 0.013003 0.691927 1.075677
v 0.621743 0.676825 0.871574
v -0.921213 0.688179 0.283635
v -0.587786 0.684117 0.852032
v -0.631618 0.672199 -0.843534
v -1.025369 0.672199 -0.343530
v 0.635492 0.699087 -0.843677
v -0.001993 0.681456 -1.045706
v 0.687821 1.093096 0.491116
v -0.262869 1.106949 0.852027
v -0.790325 1.167318 -0.025377
v -0.256607 1.106106 -0.863023
v 0.713379 1.100774 -0.519173
v 0.124654 1.399618 0.490782
v 0.525362 1.418011 -0.008881
v -0.425323 1.488174 0.309011
v -0.414140 1.435241 -0.268746
v 0.168717 1.431023 -0.554007
vt 0.823485 0.633828
vt 0.782635 0.568328
vt 0.880049 0.550169
vt 0.432769 0.201563
vt 0.533553 0.195183
vt 0.475350 0.289451
vt 0.254634 0.132798
vt 0.347154 0.159627
vt 0.261468 0.234493
vt 0.109277 0.014034
vt 0.186309 0.069195
vt 0.086651 0.101540
vt 0.814651 0.134377
vt 0.885361 0.070518
vt 0.901253 0.174105
vt 0.625972 0.200298
vt 0.718821 0.164161
vt 0.697354 0.269452
vt 0.364600 0.269464
vt 0.169506 0.176517
vt 0.014034 0.021818
vt 0.803029 0.228219
vt 0.591743 0.290300
vt 0.173317 0.395637
vt 0.268153 0.392630
vt 0.210819 0.484577
vt 0.081825 0.570191
vt 0.111374 0.487013
vt 0.175768 0.579241
vt 0.274600 0.746122
vt 0.200872 0.698609
vt 0.272088 0.647798
vt 0.446981 0.628411
vt 0.380768 0.686946
vt 0.365161 0.585872
vt 0.377603 0.410490
vt 0.426182 0.497420
vt 0.321185 0.482601
vt 0.265565 0.559349
vt 0.457070 0.596095
vt 0.302027 0.741900
vt 0.183656 0.601183
vt 0.113648 0.665029
vt 0.154864 0.406451
vt 0.357422 0.398694
vt 0.476310 0.417569
vt 0.510877 0.520762
vt 0.464342 0.711735
vt 0.376003 0.781592
vt 0.210532 0.804574
vt 0.116294 0.748431
vt 0.025766 0.505030
vt 0.071974 0.406506
vt 0.207516 0.318369
vt 0.321307 0.318368
vt 0.539364 0.624283
vt 0.319967 0.816976
vt 0.985966 0.107247
vt 0.964919 0.014034
vt 0.014034 0.617539
vt 0.102150 0.352717
vt 0.401737 0.325836
vt 0.836623 0.460340
vt 0.858754 0.370432
vt 0.901917 0.460229
vt 0.766900 0.382102
vt 0.772963 0.318368
vt 0.677778 0.322577
vt 0.650444 0.418601
vt 0.591401 0.367952
vt 0.567432 0.459615
vt 0.634839 0.524073
vt 0.567432 0.552963
vt 0.634908 0.621714
vt 0.676272 0.568122
vt 0.729527 0.649962
vt 0.631871 0.847596
vt 0.567432 0.762975
vt 0.631870 0.678030
vt 0.748834 0.712867
vt 0.748834 0.817664
vn 0.4010 -0.8847 0.2378
vn 0.8904 -0.3522 0.2883
vn -0.0436 -0.3768 0.9253
vn -0.8923 -0.2350 0.3855
vn -0.4767 -0.3760 -0.7946
vn 0.6148 -0.2946 -0.7316
vn 0.8091 -0.1718 0.5620
vn -0.3400 -0.1937 0.9202
vn -0.9815 -0.0960 0.1655
vn -0.2948 -0.2254 -0.9286
vn 0.7461 -0.1982 -0.6356
vn 0.4074 0.7491 0.5224
vn -0.6047 0.5555 0.5708
vn -0.6705 0.6870 -0.2801
vn -0.0693 0.7336 -0.6760
vn 0.6088 0.7546 -0.2448
vn 0.2899 0.9423 -0.1672
vn 0.5070 0.8033 -0.3126
vn 0.4672 0.7158 -0.5190
vn -0.1392 0.9442 -0.2984
vn -0.2480 0.8181 -0.5188
vn -0.4907 0.7006 -0.5181
vn -0.2768 0.9564 -0.0930
vn -0.6135 0.7852 -0.0838
vn -0.7748 0.5416 0.3261
vn 0.0398 0.9404 0.3378
vn -0.0637 0.8077 0.5861
vn 0.0577 0.7446 0.6651
vn 0.2900 0.9192 0.2664
vn 0.4413 0.8112 0.3837
vn 0.5679 0.7622 0.3108
vn 0.8011 0.4999 -0.3292
vn 0.7272 0.3405 -0.5960
vn 0.6209 0.4162 -0.6643
vn -0.1295 0.3253 -0.9367
vn -0.3012 0.2187 -0.9281
vn -0.5687 0.4609 -0.6813
vn -0.7983 0.5445 -0.2576
vn -0.9267 0.3467 0.1451
vn -0.8440 0.4339 0.3152
vn -0.6271 0.4819 0.6120
vn -0.3397 0.2611 0.9036
vn 0.0118 0.4804 0.8769
vn 0.5682 0.5042 0.6503
vn 0.7603 0.3683 0.5350
vn 0.7908 0.4325 0.4330
vn 0.3011 0.0344 -0.9530
vn 0.3031 -0.0821 -0.9494
vn -0.1254 -0.3327 -0.9347
vn -0.7417 0.3296 -0.5841
vn -0.7683 -0.2089 -0.6050
vn -0.8813 -0.4009 -0.2502
vn -0.8191 0.3098 0.4827
vn -0.8504 -0.1708 0.4976
vn -0.5952 -0.3655 0.7156
vn 0.3128 0.2594 0.9137
vn 0.3056 -0.2154 0.9275
vn 0.5600 -0.3652 0.7437
vn 0.9810 0.1846 0.0589
vn 0.9720 -0.2268 0.0621
vn 0.8683 -0.4127 -0.2751
vn 0.4007 -0.8352 -0.3767
vn 0.1013 -0.9448 -0.3117
vn -0.1561 -0.7904 -0.5924
vn -0.2273 -0.7993 -0.5563
vn -0.2251 -0.9616 -0.1571
vn -0.4926 -0.8697 -0.0306
vn -0.4905 -0.8661 0.0962
vn -0.3153 -0.9331 0.1729
vn -0.2938 -0.8440 0.4487
vn 0.4712 -0.8478 -0.2433
vn 0.2692 -0.9630 0.0155
vn -0.1318 -0.8521 0.5066
vn 0.1194 -0.9679 0.2211
vn 0.3746 -0.8860 0.2732
vn 0.0057 -0.9998 -0.0177
usemtl Material.001
s off
f 1/1/1 13/2/1 15/3/1
f 1/4/2 15/5/2 22/6/2
f 2/7/3 14/8/3 24/9/3
f 3/10/4 18/11/4 26/12/4
f 4/13/5 20/14/5 28/15/5
f 5/16/6 21/17/6 30/18/6
f 1/4/7 22/6/7 25/19/7
f 2/7/8 24/9/8 27/20/8
f 3/10/9 26/12/9 29/21/9
f 4/13/10 28/15/10 31/22/10
f 5/16/11 30/18/11 23/23/11
f 6/24/12 32/25/12 37/26/12
f 7/27/13 33/28/13 39/29/13
f 8/30/14 34/31/14 40/32/14
f 9/33/15 35/34/15 41/35/15
f 10/36/16 36/37/16 38/38/16
f 38/38/17 41/35/17 11/39/17
f 38/38/18 36/37/18 41/35/18
f 36/37/19 9/40/19 41/35/19
f 41/35/20 40/32/20 11/39/20
f 41/35/21 35/34/21 40/32/21
f 35/34/22 8/41/22 40/32/22
f 40/32/23 39/42/23 11/39/23
f 40/32/24 34/31/24 39/42/24
f 34/31/25 7/43/25 39/42/25
f 39/29/26 37/26/26 11/39/26
f 39/29/27 33/28/27 37/26/27
f 33/28/28 6/44/28 37/26/28
f 37/26/29 38/38/29 11/39/29
f 37/26/30 32/25/30 38/38/30
f 32/25/31 10/45/31 38/38/31
f 23/46/32 36/37/32 10/36/32
f 23/46/33 30/47/33 36/37/33
f 30/47/34 9/40/34 36/37/34
f 31/48/35 35/34/35 9/33/35
f 31/48/36 28/49/36 35/34/36
f 28/49/37 8/41/37 35/34/37
f 29/50/38 34/31/38 8/30/38
f 29/50/39 26/51/39 34/31/39
f 26/51/40 7/43/40 34/31/40
f 27/52/41 33/28/41 7/27/41
f 27/52/42 24/53/42 33/28/42
f 24/53/43 6/44/43 33/28/43
f 25/54/44 32/25/44 6/24/44
f 25/54/45 22/55/45 32/25/45
f 22/55/46 10/45/46 32/25/46
f 30/56/47 31/48/47 9/33/47
f 30/18/48 21/17/48 31/22/48
f 21/17/49 4/13/49 31/22/49
f 28/57/50 29/50/50 8/30/50
f 28/15/51 20/14/51 29/58/51
f 20/14/52 3/59/52 29/58/52
f 26/60/53 27/52/53 7/27/53
f 26/12/54 18/11/54 27/20/54
f 18/11/55 2/7/55 27/20/55
f 24/61/56 25/54/56 6/24/56
f 24/9/57 14/8/57 25/19/57
f 14/8/58 1/4/58 25/19/58
f 22/62/59 23/46/59 10/36/59
f 22/6/60 15/5/60 23/23/60
f 15/5/61 5/16/61 23/23/61
f 16/63/62 21/64/62 5/65/62
f 16/63/63 19/66/63 21/64/63
f 19/66/64 4/67/64 21/64/64
f 19/66/65 20/68/65 4/67/65
f 19/66/66 17/69/66 20/68/66
f 17/69/67 3/70/67 20/68/67
f 17/69/68 18/71/68 3/70/68
f 17/69/69 12/72/69 18/71/69
f 12/72/70 2/73/70 18/71/70
f 15/3/71 16/63/71 5/65/71
f 15/3/72 13/2/72 16/63/72
f 12/72/73 14/74/73 2/73/73
f 12/75/74 13/2/74 14/76/74
f 13/2/75 1/1/75 14/76/75
f 13/77/76 12/78/76 17/79/76 19/80/76 16/81/76
