# Blender v2.79 (sub 0) OBJ File: 'shopFront-quad.blend'
# www.blender.org
mtllib shopFront-quad.mtl
o Cylinder
v 1.241606 1.910673 -2.752234
v 1.241606 1.910673 -2.702234
v 1.349812 1.851922 -2.752234
v 1.349812 1.851922 -2.702234
v 1.394938 1.737362 -2.752234
v 1.394938 1.737362 -2.702234
v 1.355870 1.620597 -2.752234
v 1.355870 1.620597 -2.702234
v 1.250886 1.556263 -2.752234
v 1.250886 1.556263 -2.702234
v 1.129111 1.574463 -2.752234
v 1.129111 1.574463 -2.702234
v 1.047525 1.666680 -2.752234
v 1.047525 1.666680 -2.702234
v 1.044302 1.789765 -2.752234
v 1.044302 1.789765 -2.702234
v 1.120950 1.886125 -2.752234
v 1.120950 1.886125 -2.702234
v 1.046384 1.757850 -2.702234
v 1.045916 1.757920 -2.752234
v 1.044503 1.697464 -2.752234
v 1.044737 1.697429 -2.702234
v 0.997343 1.699886 -2.751734
v 0.998756 1.760341 -2.751734
v 0.999224 1.760271 -2.701733
v 0.997577 1.699851 -2.701733
vt 0.500017 0.821569
vt 0.570814 0.821578
vt 0.570842 1.000000
vt 0.712450 0.985819
vt 0.641653 0.985819
vt 0.641653 0.823251
vt 0.712450 0.823251
vt 0.641653 0.611035
vt 0.712450 0.611035
vt 0.641653 0.992000
vt 0.570842 0.823002
vt 0.641639 0.823008
vt 0.570856 0.611035
vt 0.641653 0.611041
vt 0.000086 0.612063
vt 0.070796 0.781051
vt 0.000000 0.781224
vt 0.070882 0.834261
vt 0.000085 0.834525
vt 0.500017 0.328378
vt 0.545520 0.123517
vt 0.573339 0.520913
vt 0.070882 0.666829
vt 0.141678 0.667035
vt 0.141785 0.822606
vt 0.500045 0.611035
vt 0.570842 0.611044
vt 0.045377 0.487348
vt 0.073441 0.089977
vt 0.188339 0.608807
vt 0.070986 0.611890
vt 0.141785 0.611914
vt 0.208572 0.611890
vt 0.141785 0.698548
vt 0.141785 0.612369
vt 0.393078 0.550135
vt 0.456461 0.480059
vt 0.436634 0.611890
vt 0.956406 0.131515
vt 0.892873 0.061715
vt 1.000000 0.069800
vt 0.208572 0.698071
vt 0.274910 0.612002
vt 0.274910 0.698184
vt 0.688557 0.002188
vt 0.862199 0.021162
vt 0.985197 0.171561
vt 1.000000 0.383011
vt 0.899680 0.556573
vt 0.731178 0.611035
vt 0.000000 0.282446
vt 0.361993 0.589992
vt 0.485084 0.439705
vt 0.500017 0.228269
vt 0.399804 0.054616
vt 0.231336 0.000000
vt 0.500045 0.999991
vt 0.070988 0.822401
vt 0.208572 0.611890
vt 0.936467 0.000000
vt 0.208572 0.698069
vt 0.500017 0.541814
vt 0.070882 0.611890
vt 0.570856 0.991994
vn 0.4772 0.8788 0.0000
vn 0.9304 0.3665 0.0000
vn 0.9483 -0.3173 0.0000
vn 0.5225 -0.8526 0.0000
vn -0.1478 -0.9890 0.0000
vn -0.7490 -0.6626 0.0000
vn -0.9952 -0.0977 0.0046
vn 0.0000 0.0000 1.0000
vn -0.7826 0.6225 0.0000
vn -0.1994 0.9799 0.0000
vn 0.0000 0.0000 -1.0000
vn -0.9978 -0.0651 0.0093
vn -0.0513 -0.9987 -0.0005
vn -0.0106 0.0002 -0.9999
vn 0.0106 -0.0003 0.9999
vn 0.0513 0.9987 0.0009
vn -0.9987 -0.0506 0.0000
vn -0.9959 -0.0903 0.0000
usemtl Material.001
s off
f 1/1/1 2/2/1 4/3/1
f 3/4/2 4/5/2 6/6/2
f 5/7/3 8/8/3 7/9/3
f 7/10/4 10/11/4 9/12/4
f 9/12/5 12/13/5 11/14/5
f 11/15/6 14/16/6 13/17/6
f 13/17/7 22/18/7 21/19/7
f 4/20/8 2/21/8 6/22/8
f 15/23/9 16/24/9 18/25/9
f 17/26/10 18/27/10 2/2/10
f 1/28/11 5/29/11 17/30/11
f 20/31/12 19/32/12 16/24/12
f 21/33/13 26/34/13 23/35/13
f 20/36/14 21/37/14 24/38/14
f 22/39/15 19/40/15 26/41/15
f 19/42/16 24/43/16 25/44/16
f 6/22/8 2/21/8 18/45/8
f 18/45/8 16/46/8 6/22/8
f 6/22/8 16/46/8 19/40/8 22/39/8 14/47/8
f 14/47/8 12/48/8 6/22/8
f 6/22/8 12/48/8 10/49/8
f 10/49/8 8/50/8 6/22/8
f 5/29/11 1/28/11 3/51/11
f 17/30/11 5/29/11 15/52/11
f 15/52/11 5/29/11 13/53/11 21/37/11 20/36/11
f 13/53/11 5/29/11 11/54/11
f 11/54/11 5/29/11 9/55/11
f 9/55/11 5/29/11 7/56/11
f 6/6/2 5/7/2 3/4/2
f 4/3/1 3/57/1 1/1/1
f 2/2/10 1/1/10 17/26/10
f 18/25/9 17/58/9 15/23/9
f 16/24/17 15/23/17 20/31/17
f 24/43/16 19/42/16 20/59/16
f 26/41/15 19/40/15 25/60/15
f 26/34/13 21/33/13 22/61/13
f 24/38/14 21/37/14 23/62/14
f 22/18/18 13/17/18 14/16/18
f 14/16/6 11/15/6 12/63/6
f 12/13/5 9/12/5 10/11/5
f 10/11/4 7/10/4 8/64/4
f 8/8/3 5/7/3 6/6/3
o Cube
v 1.000000 0.000000 -3.000000
v 0.400000 0.515015 1.000000
v -0.400000 0.515015 1.000000
v -1.000000 0.000000 -3.000000
v 0.853084 2.000000 -2.853083
v 0.853083 2.000000 0.853084
v -0.853084 2.000000 0.853083
v -0.853083 2.000000 -2.853083
v 1.000000 2.000000 -3.000000
v -1.000000 2.000000 -3.000000
v -0.400000 1.536647 1.000000
v 0.853084 1.856198 -2.853083
v 0.853083 1.856198 0.853084
v -0.853083 1.856198 -2.853083
v -0.853084 1.856198 0.853083
v 1.000000 0.000000 -1.000000
v 0.400000 1.536450 1.000000
v 1.000000 1.650000 -1.000000
v 1.392029 1.650000 -1.000000
v 1.696015 1.568547 -1.000000
v 1.918547 1.346015 -1.000000
v 1.392029 1.650000 1.000000
v 1.918547 1.346015 1.000000
v 1.696014 1.568547 1.000000
v 2.000000 0.000000 -1.000000
v 2.000000 0.000000 1.000000
v 2.000000 1.042029 1.000000
v 2.000000 1.042029 -1.000000
v 1.000000 0.150000 -3.000000
v 1.000000 0.000000 -2.200000
v 1.000000 0.150000 -2.200000
v 1.168600 -0.000000 -3.000000
v 1.168601 0.150000 -3.000000
v 1.168600 -0.000000 -2.200000
v 1.168601 0.150000 -2.200000
v 1.000000 0.000000 1.000000
v -1.000000 0.000000 1.000000
v 0.999999 1.650000 1.000000
v 0.999999 2.000000 1.000001
v -1.000000 2.000000 1.000000
v -0.400000 1.250098 1.400000
v 0.400000 1.249902 1.400000
vt 0.033759 0.679640
vt 0.179935 0.679640
vt 0.179935 0.752728
vt 0.033759 0.752728
vt 0.755633 0.057883
vt 0.695057 0.057883
vt 0.695057 0.045117
vt 0.755633 0.045117
vt 0.966241 0.163067
vt 0.966241 0.443698
vt 0.837050 0.443698
vt 0.837050 0.163067
vt 0.314387 0.831134
vt 0.033759 0.831134
vt 0.033759 0.820245
vt 0.314387 0.820246
vt 0.033759 0.320321
vt 0.323586 0.320321
vt 0.323586 0.465235
vt 0.033759 0.465235
vt 0.724209 0.831134
vt 0.443578 0.831134
vt 0.443578 0.820246
vt 0.724209 0.820245
vt 0.758408 0.174192
vt 0.629216 0.174192
vt 0.618092 0.163067
vt 0.769533 0.163067
vt 0.769532 0.465945
vt 0.618092 0.465946
vt 0.629216 0.454821
vt 0.758408 0.454821
vt 0.853401 0.831134
vt 0.853401 0.820245
vt 0.033759 0.533463
vt 0.326111 0.533463
vt 0.326111 0.679640
vt 0.179956 0.682191
vt 0.469887 0.636195
vt 0.621327 0.636196
vt 0.621327 0.660025
vt 0.469887 0.660025
vt 0.621327 0.683855
vt 0.469887 0.683855
vt 0.621327 0.713539
vt 0.469887 0.713539
vt 0.468517 0.456451
vt 0.479211 0.456239
vt 0.479194 0.464408
vt 0.468500 0.465235
vt 0.683699 0.057883
vt 0.683699 0.045117
vt 0.326649 0.710442
vt 0.180493 0.712993
vt 0.825140 0.610821
vt 0.764564 0.610821
vt 0.764583 0.533463
vt 0.825159 0.533478
vt 0.079190 0.140361
vt 0.033759 0.101365
vt 0.185197 0.101365
vt 0.139766 0.140361
vt 0.079190 0.217719
vt 0.033759 0.252804
vt 0.139766 0.217704
vt 0.185197 0.252803
vt 0.469887 0.612366
vt 0.621327 0.612366
vt 0.394167 0.533463
vt 0.469887 0.533463
vt 0.463719 0.635383
vt 0.446869 0.652234
vt 0.423851 0.658401
vt 0.394167 0.658401
vt 0.667362 0.658401
vt 0.644344 0.652234
vt 0.627494 0.635383
vt 0.621327 0.533463
vt 0.697047 0.533463
vt 0.697047 0.658401
vt 0.468500 0.320321
vt 0.185197 0.226302
vt 0.337443 0.226789
vt 0.336837 0.103891
vt 0.427895 0.102108
vt 0.427503 0.112721
vt 0.488079 0.112721
vt 0.488079 0.252803
vt 0.695057 0.033759
vt 0.755633 0.033759
vt 0.616172 0.071023
vt 0.555596 0.071017
vt 0.555605 0.033759
vt 0.616181 0.033765
vn 0.0000 -1.0000 0.0000
vn 0.0000 1.0000 0.0000
vn -1.0000 0.0000 -0.0000
vn 1.0000 0.0000 0.0000
vn 0.0000 0.0000 -1.0000
vn 0.7071 0.7071 0.0000
vn 0.2588 0.9659 0.0000
vn -0.0000 0.0000 1.0000
vn 0.9659 0.2588 0.0000
vn 0.0002 0.8129 0.5824
usemtl Material
s off
f 62/65/19 42/66/19 51/67/19 52/68/19
f 55/69/20 57/70/20 61/71/20 59/72/20
f 40/73/20 41/74/20 39/75/20 38/76/20
f 38/77/21 39/78/21 32/79/21 31/80/21
f 66/81/21 36/82/21 30/83/21 63/84/21
f 41/85/22 40/86/22 34/87/22 33/88/22
f 34/89/20 31/90/20 35/91/20 36/92/20
f 66/93/20 65/94/20 32/95/20 33/96/20
f 39/97/23 41/85/23 33/88/23 32/98/23
f 32/95/20 65/94/20 35/91/20 31/90/20
f 63/99/19 30/100/19 27/101/19 56/102/19 42/66/19 62/65/19
f 49/103/24 47/104/24 46/105/24 50/106/24
f 50/106/25 46/105/25 45/107/25 48/108/25
f 44/109/20 64/110/20 48/108/20 45/107/20
f 55/111/23 59/112/23 58/113/23 27/114/23
f 56/115/26 60/116/26 61/71/26 57/70/26
f 58/117/19 60/118/19 56/102/19 27/101/19
f 43/119/26 37/120/26 29/121/26 28/122/26
f 29/123/26 63/124/26 62/125/26 28/126/26
f 29/123/26 37/127/26 66/128/26 63/124/26
f 43/129/26 65/130/26 66/128/26 37/127/26
f 47/104/27 49/103/27 53/131/27 54/132/27
f 62/133/26 52/134/26 53/131/26 49/135/26 50/136/26 48/137/26 64/138/26
f 45/139/23 46/140/23 47/141/23 54/132/23 51/142/23 42/143/23 44/144/23
f 54/132/22 53/131/22 52/134/22 51/142/22
f 27/114/23 30/83/23 36/82/23 35/145/23 55/111/23
f 65/130/22 64/146/22 44/147/22 42/148/22 56/149/22 57/150/22 55/151/22 35/152/22
f 34/89/20 36/92/20 66/93/20 33/96/20
f 59/72/22 61/71/22 60/153/22 58/154/22
f 40/86/26 38/77/26 31/80/26 34/87/26
f 43/129/26 28/126/26 62/125/26 64/146/26 65/130/26
f 43/155/28 37/156/28 67/157/28 68/158/28
