# Blender v2.79 (sub 0) OBJ File: 'feeder.blend'
# www.blender.org
mtllib feeder.mtl
o Cylinder
v 0.000000 0.269582 -1.289221
v -0.000000 2.066707 -0.772808
v 0.828695 0.269582 -0.987601
v 0.496752 2.066707 -0.592005
v 1.269635 0.269582 -0.223871
v 0.761068 2.066707 -0.134197
v 1.116498 0.269582 0.644611
v 0.669272 2.066707 0.386404
v 0.440939 0.269582 1.211472
v 0.264316 2.066707 0.726202
v -0.440940 0.269582 1.211472
v -0.264316 2.066707 0.726202
v -1.116498 0.269582 0.644611
v -0.669272 2.066707 0.386404
v -1.269635 0.269582 -0.223871
v -0.761068 2.066707 -0.134197
v -0.828696 0.269582 -0.987601
v -0.496752 2.066707 -0.592005
v 0.000000 1.766707 -1.000000
v 0.642788 1.766707 -0.766044
v 0.984808 1.766707 -0.173648
v 0.866025 1.766707 0.500000
v 0.342020 1.766707 0.939693
v -0.342020 1.766707 0.939693
v -0.866025 1.766707 0.500000
v -0.984808 1.766707 -0.173648
v -0.642788 1.766707 -0.766044
v 0.642788 0.491707 -0.766044
v 0.984808 0.491707 -0.173648
v 0.866025 0.491707 0.500000
v 0.342020 0.491707 0.939693
v -0.342020 0.491707 0.939693
v -0.866025 0.491707 0.500000
v -0.984808 0.491707 -0.173648
v -0.642788 0.491707 -0.766044
v 0.000000 0.491707 -1.000000
v 0.000000 0.023411 -1.289221
v 0.828695 0.023411 -0.987601
v 1.269635 0.023411 -0.223871
v 1.116498 0.023411 0.644611
v 0.440939 0.023411 1.211472
v -0.440940 0.023411 1.211472
v -1.116498 0.023411 0.644611
v -1.269635 0.023411 -0.223871
v -0.828696 0.023411 -0.987601
vt 0.259049 0.726805
vt 0.249598 0.682019
vt 0.308414 0.656038
vt 0.335156 0.693186
vt 0.351716 0.608506
vt 0.391189 0.631681
vt 0.372120 0.547530
vt 0.417591 0.552779
vt 0.366146 0.483509
vt 0.409860 0.469937
vt 0.334812 0.427362
vt 0.369315 0.397283
vt 0.017305 0.552779
vt 0.062776 0.547530
vt 0.083180 0.608506
vt 0.043707 0.631681
vt 0.126482 0.656038
vt 0.099740 0.693186
vt 0.593199 0.571260
vt 0.529877 0.582425
vt 0.474192 0.550276
vt 0.452200 0.489854
vt 0.474192 0.429433
vt 0.529877 0.397283
vt 0.593199 0.408449
vt 0.634530 0.457705
vt 0.634530 0.522004
vt 0.185298 0.682019
vt 0.175847 0.726805
vt 0.553633 0.951365
vt 0.660898 0.951365
vt 0.660899 0.981307
vt 0.553633 0.981307
vt 0.266910 0.916583
vt 0.266964 0.761501
vt 0.350166 0.761530
vt 0.350112 0.916612
vt 0.183708 0.916554
vt 0.183762 0.761472
vt 0.100507 0.916525
vt 0.100560 0.761443
vt 0.017305 0.916497
vt 0.017358 0.761415
vt 0.682920 0.916727
vt 0.682973 0.761645
vt 0.766175 0.761673
vt 0.766121 0.916755
vt 0.599718 0.916698
vt 0.599771 0.761616
vt 0.516516 0.916669
vt 0.516569 0.761587
vt 0.433314 0.916640
vt 0.433368 0.761558
vt 0.157557 0.362674
vt 0.169589 0.319981
vt 0.252791 0.319981
vt 0.264823 0.362674
vt 0.323749 0.276535
vt 0.356304 0.306664
vt 0.361580 0.202431
vt 0.405076 0.211127
vt 0.355149 0.119478
vt 0.396785 0.104182
vt 0.306349 0.052091
vt 0.333870 0.017305
vt 0.088510 0.017305
vt 0.116032 0.052091
vt 0.067232 0.119478
vt 0.025596 0.104182
vt 0.060801 0.202431
vt 0.017305 0.211127
vt 0.098631 0.276535
vt 0.066077 0.306664
vt 0.674903 0.035931
vt 0.743852 0.118101
vt 0.743852 0.225367
vt 0.674903 0.307537
vt 0.569267 0.326164
vt 0.476372 0.272531
vt 0.439685 0.171734
vt 0.476372 0.070938
vt 0.569267 0.017305
vt 0.339101 0.951365
vt 0.446367 0.951365
vt 0.446367 0.981307
vt 0.339101 0.981307
vt 0.231836 0.951365
vt 0.231836 0.981308
vt 0.124570 0.951365
vt 0.124570 0.981308
vt 0.017305 0.951365
vt 0.017305 0.981308
vt 0.875430 0.951365
vt 0.982695 0.951365
vt 0.982695 0.981307
vt 0.875430 0.981307
vt 0.768164 0.951365
vt 0.768164 0.981307
vn 0.2787 0.5798 -0.7656
vn 0.7056 0.5798 -0.4074
vn 0.8024 0.5798 0.1415
vn 0.5237 0.5798 0.6241
vn -0.0000 0.5798 0.8148
vn -0.5237 0.5798 0.6241
vn -0.8024 0.5798 0.1415
vn 0.0000 1.0000 0.0000
vn -0.7056 0.5798 -0.4074
vn -0.2787 0.5798 -0.7656
vn 0.8660 0.0000 -0.5000
vn -0.3420 0.0000 -0.9397
vn -0.8660 0.0000 -0.5000
vn -0.9848 0.0000 0.1736
vn -0.6428 0.0000 0.7660
vn -0.0000 0.0000 1.0000
vn 0.6428 0.0000 0.7660
vn 0.9848 0.0000 0.1736
vn 0.3420 0.0000 -0.9397
vn 0.2164 0.7743 -0.5947
vn 0.5480 0.7743 -0.3164
vn 0.6232 0.7743 0.1099
vn 0.4068 0.7743 0.4848
vn -0.0000 0.7743 0.6328
vn -0.4068 0.7743 0.4848
vn -0.6232 0.7743 0.1099
vn -0.5480 0.7743 -0.3164
vn -0.2164 0.7743 -0.5947
vn 0.0000 -1.0000 0.0000
usemtl Material.001
s off
f 19/1/1 2/2/1 4/3/1 20/4/1
f 20/4/2 4/3/2 6/5/2 21/6/2
f 21/6/3 6/5/3 8/7/3 22/8/3
f 22/8/4 8/7/4 10/9/4 23/10/4
f 23/10/5 10/9/5 12/11/5 24/12/5
f 24/13/6 12/14/6 14/15/6 25/16/6
f 25/16/7 14/15/7 16/17/7 26/18/7
f 4/19/8 2/20/8 18/21/8 16/22/8 14/23/8 12/24/8 10/25/8 8/26/8 6/27/8
f 26/18/9 16/17/9 18/28/9 27/29/9
f 27/29/10 18/28/10 2/2/10 19/1/10
f 3/30/11 5/31/11 39/32/11 38/33/11
f 35/34/12 27/35/12 19/36/12 36/37/12
f 34/38/13 26/39/13 27/35/13 35/34/13
f 33/40/14 25/41/14 26/39/14 34/38/14
f 32/42/15 24/43/15 25/41/15 33/40/15
f 31/44/16 23/45/16 24/46/16 32/47/16
f 30/48/17 22/49/17 23/45/17 31/44/17
f 29/50/18 21/51/18 22/49/18 30/48/18
f 28/52/11 20/53/11 21/51/11 29/50/11
f 36/37/19 19/36/19 20/53/19 28/52/19
f 1/54/20 36/55/20 28/56/20 3/57/20
f 3/57/21 28/56/21 29/58/21 5/59/21
f 5/59/22 29/58/22 30/60/22 7/61/22
f 7/61/23 30/60/23 31/62/23 9/63/23
f 9/63/24 31/62/24 32/64/24 11/65/24
f 11/66/25 32/67/25 33/68/25 13/69/25
f 13/69/26 33/68/26 34/70/26 15/71/26
f 15/71/27 34/70/27 35/72/27 17/73/27
f 17/73/28 35/72/28 36/55/28 1/54/28
f 37/74/29 38/75/29 39/76/29 40/77/29 41/78/29 42/79/29 43/80/29 44/81/29 45/82/29
f 17/83/12 1/84/12 37/85/12 45/86/12
f 15/87/13 17/83/13 45/86/13 44/88/13
f 13/89/14 15/87/14 44/88/14 43/90/14
f 11/91/15 13/89/15 43/90/15 42/92/15
f 9/93/16 11/94/16 42/95/16 41/96/16
f 7/97/17 9/93/17 41/96/17 40/98/17
f 1/84/19 3/30/19 38/33/19 37/85/19
f 5/31/18 7/97/18 40/98/18 39/32/18
