# This file uses centimeters as units for non-parametric coordinates.

mtllib FenceLine.mtl
g default
v 0.846566 1.006891 0.002041
v 0.846566 0.174970 0.002041
v -0.847087 0.174970 0.002041
v -0.847087 1.006891 0.002041
vt 0.000978 0.001992
vt 0.490221 0.001992
vt 0.490221 0.998008
vt 0.000978 0.998008
vn 0.000000 0.000000 -1.000000
vn 0.000000 0.000000 -1.000000
vn 0.000000 0.000000 -1.000000
vn 0.000000 0.000000 -1.000000
s off
g polySurface2 pCube1
usemtl initialShadingGroup
f 1/1/1 2/2/2 3/3/3 4/4/4
g default
v -1.000000 0.000000 0.078978
v 1.000000 0.000000 0.078978
v -1.000000 0.174970 0.078978
v 1.000000 0.174970 0.078978
v -1.000000 0.174970 -0.078978
v 1.000000 0.174970 -0.078978
v -1.000000 0.000000 -0.078978
v 1.000000 0.000000 -0.078978
v -0.847043 0.174970 0.078978
v 0.846467 0.174970 0.078978
v 0.846566 0.174970 -0.078978
v -0.847087 0.174970 -0.078978
v 1.000000 1.131107 0.078978
v 1.000000 1.131107 -0.078978
v 0.846566 1.006891 -0.078978
v 0.846467 1.006891 0.078978
v -1.000000 1.131107 0.078978
v -1.000000 1.131107 -0.078978
v -0.847043 1.006891 0.078978
v -0.847087 1.006891 -0.078978
vt 0.892527 0.043167
vt 0.933810 0.043167
vt 0.933810 0.088897
vt 0.892527 0.088897
vt 0.933810 0.338791
vt 0.892527 0.338791
vt 0.950976 0.043168
vt 0.992259 0.043168
vt 0.992259 0.088897
vt 0.950976 0.088897
vt 0.992259 0.338791
vt 0.950976 0.338791
vt 0.950204 0.642640
vt 0.950204 0.417084
vt 0.993030 0.417084
vt 0.993030 0.642640
vt 0.993030 0.676318
vt 0.950204 0.676318
vt 0.891751 0.642659
vt 0.891751 0.417058
vt 0.934586 0.417058
vt 0.934586 0.642659
vt 0.934586 0.676345
vt 0.891751 0.676345
vt 0.834078 0.506280
vt 0.834078 0.063668
vt 0.875361 0.063642
vt 0.875361 0.506291
vt 0.775629 0.596921
vt 0.775629 0.074207
vt 0.816912 0.074207
vt 0.816912 0.596921
vt 0.088892 0.114333
vt 0.043162 0.074206
vt 0.088892 0.074206
vt 0.043162 0.596921
vt 0.088892 0.556945
vt 0.338785 0.074206
vt 0.306320 0.114333
vt 0.088892 0.596921
vt 0.306320 0.556945
vt 0.338785 0.596921
vt 0.678005 0.596921
vt 0.678005 0.556955
vt 0.723735 0.596921
vt 0.428112 0.596921
vt 0.460577 0.556955
vt 0.678005 0.114307
vt 0.723735 0.074206
vt 0.678005 0.074206
vt 0.460577 0.114307
vt 0.428112 0.074206
vn 0.000000 0.000000 1.000000
vn 0.000000 0.000000 1.000000
vn 0.000000 0.000000 1.000000
vn 0.000000 1.000000 0.000000
vn 0.000000 1.000000 0.000000
vn 0.000000 1.000000 0.000000
vn 0.000000 1.000000 0.000000
vn 0.000000 0.000000 -1.000000
vn 0.000000 0.000000 -1.000000
vn 0.000000 0.000000 -1.000000
vn 0.000000 -1.000000 0.000000
vn 0.000000 -1.000000 0.000000
vn 0.000000 -1.000000 0.000000
vn 0.000000 -1.000000 0.000000
vn 1.000000 0.000000 0.000000
vn 1.000000 0.000000 0.000000
vn 1.000000 0.000000 0.000000
vn 1.000000 0.000000 0.000000
vn -1.000000 0.000000 0.000000
vn -1.000000 0.000000 0.000000
vn -1.000000 0.000000 0.000000
vn -1.000000 0.000000 0.000000
vn -0.629099 0.777325 -0.000198
vn -0.629099 0.777325 -0.000198
vn -0.629099 0.777325 -0.000198
vn -0.629099 0.777325 -0.000198
vn 0.630459 0.776222 -0.000087
vn 0.630459 0.776222 -0.000087
vn 0.630459 0.776222 -0.000087
vn 0.630459 0.776222 -0.000087
vn 0.000000 0.000000 1.000000
vn 0.000000 0.000000 1.000000
vn 0.000000 0.000000 1.000000
vn 0.000000 0.000000 -1.000000
vn 0.000000 0.000000 -1.000000
vn 0.000000 0.000000 -1.000000
vn 1.000000 0.000000 0.000000
vn 1.000000 0.000000 0.000000
vn 1.000000 0.000000 0.000000
vn 1.000000 0.000000 0.000000
vn 0.000000 0.000000 -1.000000
vn 0.000000 0.000000 -1.000000
vn 0.000000 0.000000 -1.000000
vn 0.000000 0.000000 -1.000000
vn 0.000000 0.000000 1.000000
vn 0.000000 0.000000 1.000000
vn 0.000000 0.000000 1.000000
vn 0.000000 0.000000 1.000000
vn -1.000000 0.000000 0.000000
vn -1.000000 0.000000 0.000000
vn -1.000000 0.000000 0.000000
vn -1.000000 0.000000 0.000000
vn -0.000000 0.000000 1.000000
vn -0.000000 0.000000 1.000000
vn -0.000000 0.000000 1.000000
vn -0.000000 0.000000 1.000000
vn 0.000000 0.000000 -1.000000
vn 0.000000 0.000000 -1.000000
vn 0.000000 0.000000 -1.000000
vn 0.000000 0.000000 -1.000000
vn 1.000000 0.000000 -0.000275
vn 1.000000 0.000000 -0.000275
vn 1.000000 0.000000 -0.000275
vn 1.000000 0.000000 -0.000275
vn -1.000000 0.000000 -0.000629
vn -1.000000 0.000000 -0.000629
vn -1.000000 0.000000 -0.000629
vn -1.000000 0.000000 -0.000629
s 1
g pCube1 polySurface1
usemtl initialShadingGroup
f 14/37/5 6/38/6 8/39/7
s off
f 13/29/8 14/30/9 15/31/10 16/32/11
s 2
f 9/47/12 16/48/13 11/49/14
s off
f 11/33/15 12/34/16 6/35/17 5/36/18
f 6/5/19 12/6/20 10/7/21 8/8/22
f 11/11/23 5/12/24 7/13/25 9/14/26
f 17/27/27 18/28/28 19/23/29 20/26/30
f 22/21/31 21/22/32 23/17/33 24/20/34
s 1
f 5/40/35 13/41/36 7/44/37
s 2
f 11/49/14 16/48/13 15/52/38 12/53/39
f 12/53/39 15/52/38 10/54/40
s 1
f 5/40/35 6/38/6 14/37/5 13/41/36
s off
f 8/8/41 10/7/42 18/9/43 17/10/44
f 10/54/45 15/52/46 19/55/47 18/56/48
f 14/37/49 8/39/50 17/42/51 20/43/52
f 9/14/53 7/13/54 21/15/55 22/16/56
f 7/44/57 13/41/58 23/45/59 21/46/60
f 16/48/61 9/47/62 22/50/63 24/51/64
f 23/17/65 13/18/66 16/19/67 24/20/68
f 19/23/69 15/24/70 14/25/71 20/26/72
