# This file uses centimeters as units for non-parametric coordinates.

mtllib FenceGate.mtl
g default
v -4.000000 0.000000 0.078978
v -2.000000 0.000000 0.078978
v -4.000000 0.174970 0.078978
v -2.000000 0.174970 0.078978
v -4.000000 0.174970 -0.078978
v -2.000000 0.174970 -0.078978
v -4.000000 0.000000 -0.078978
v -2.000000 0.000000 -0.078978
v -3.847043 0.174970 0.078978
v -2.153533 0.174970 0.078978
v -2.153434 0.174970 -0.078978
v -3.847087 0.174970 -0.078978
v -2.000000 1.131107 0.078978
v -2.000000 1.131107 -0.078978
v -2.153434 1.006891 -0.078978
v -2.153533 1.006891 0.078978
v -4.000000 1.131107 0.078978
v -4.000000 1.131107 -0.078978
v -3.847043 1.006891 0.078978
v -3.847087 1.006891 -0.078978
v -3.000000 0.000000 0.078978
v -3.000295 0.174970 0.078978
v -3.000260 0.174970 -0.078978
v -3.000000 0.000000 -0.078978
v -2.472309 0.174970 -0.078978
v -2.472388 0.174970 0.078978
v -3.528202 0.174970 0.078978
v -3.528212 0.174970 -0.078978
v -3.792187 0.174970 -0.078978
v -3.792156 0.174970 0.078978
v -2.208435 0.174970 0.078978
v -2.208333 0.174970 -0.078978
v -2.736284 0.174970 -0.078978
v -2.736342 0.174970 0.078978
v -3.264249 0.174970 0.078978
v -3.264236 0.174970 -0.078978
v -3.769514 0.174970 -0.043728
v -3.769488 0.174970 0.043726
v -3.550874 0.174970 0.043726
v -3.550882 0.174970 -0.043728
v -2.449645 0.174970 -0.043728
v -2.449711 0.174970 0.043726
v -2.231097 0.174970 0.043726
v -2.231012 0.174970 -0.043728
v -2.713619 0.174970 -0.043728
v -2.713666 0.174970 0.043726
v -2.495052 0.174970 0.043726
v -2.494986 0.174970 -0.043728
v -3.505532 0.174970 0.043726
v -3.505540 0.174970 -0.043728
v -3.286918 0.174970 0.043726
v -3.286908 0.174970 -0.043728
v -2.977622 0.174970 0.043726
v -2.977592 0.174970 -0.043728
v -2.759008 0.174970 0.043726
v -2.758960 0.174970 -0.043728
v -3.241577 0.174970 0.043726
v -3.241566 0.174970 -0.043728
v -3.022963 0.174970 0.043726
v -3.022934 0.174970 -0.043728
v -3.769514 1.000033 -0.043728
v -3.769488 1.000033 0.043726
v -3.550874 1.050932 0.043726
v -3.550882 1.050932 -0.043728
v -2.449645 1.050932 -0.043728
v -2.449711 1.050932 0.043726
v -2.231097 1.000033 0.043726
v -2.231012 1.000033 -0.043728
v -2.713619 1.089997 -0.043728
v -2.713666 1.089997 0.043726
v -2.495052 1.050932 0.043726
v -2.494986 1.050932 -0.043728
v -3.505532 1.050932 0.043726
v -3.505540 1.050932 -0.043728
v -3.286918 1.089997 0.043726
v -3.286908 1.089997 -0.043728
v -2.977622 1.107687 0.043726
v -2.977592 1.107687 -0.043728
v -2.759008 1.089997 0.043726
v -2.758960 1.089997 -0.043728
v -3.241577 1.089997 0.043726
v -3.241566 1.089997 -0.043728
v -3.022963 1.107687 0.043726
v -3.022934 1.107687 -0.043728
vt 0.701135 0.002975
vt 0.742418 0.002975
vt 0.742418 0.048704
vt 0.701135 0.048704
vt 0.742418 0.298598
vt 0.701135 0.298598
vt 0.749105 0.002975
vt 0.790388 0.002975
vt 0.790388 0.048705
vt 0.749105 0.048705
vt 0.790388 0.298598
vt 0.749105 0.298598
vt 0.797076 0.003526
vt 0.839861 0.003526
vt 0.838944 0.219967
vt 0.798016 0.219970
vt 0.838667 0.270308
vt 0.798250 0.270292
vt 0.845047 0.003546
vt 0.887822 0.003546
vt 0.886894 0.219993
vt 0.845965 0.219992
vt 0.886650 0.270220
vt 0.846228 0.270228
vt 0.132876 0.769104
vt 0.155746 0.769061
vt 0.155760 0.984690
vt 0.132910 0.984690
vt 0.212895 0.769062
vt 0.235753 0.769063
vt 0.235737 0.998008
vt 0.212883 0.998002
vt 0.659694 0.551762
vt 0.682437 0.551762
vt 0.681551 0.780732
vt 0.658700 0.780634
vt 0.739600 0.551992
vt 0.762466 0.552085
vt 0.761596 0.767771
vt 0.738737 0.767672
vt 0.470699 0.531165
vt 0.493726 0.531165
vt 0.491508 0.770318
vt 0.468666 0.770121
vt 0.550849 0.531721
vt 0.573699 0.531942
vt 0.571542 0.760829
vt 0.548700 0.760619
vt 0.139015 0.532858
vt 0.161871 0.532857
vt 0.161881 0.761797
vt 0.139024 0.761797
vt 0.059017 0.532859
vt 0.081873 0.532864
vt 0.081884 0.772009
vt 0.059027 0.772012
vt 0.302616 0.531811
vt 0.325701 0.531811
vt 0.325640 0.775516
vt 0.302781 0.775532
vt 0.382806 0.531891
vt 0.405632 0.531925
vt 0.405634 0.770887
vt 0.382768 0.770877
vt 0.701135 0.304109
vt 0.723972 0.304109
vt 0.724054 0.543529
vt 0.701177 0.543555
vt 0.781204 0.304148
vt 0.804011 0.304154
vt 0.804044 0.548030
vt 0.781195 0.548065
vt 0.942128 0.124140
vt 0.918848 0.124133
vt 0.919130 0.065830
vt 0.941846 0.065831
vt 0.605195 0.524794
vt 0.605195 0.263436
vt 0.646478 0.263436
vt 0.646478 0.524794
vt 0.605195 0.002079
vt 0.646478 0.002079
vt 0.916298 0.061155
vt 0.893018 0.061173
vt 0.893300 0.002869
vt 0.916016 0.002847
vt 0.914281 0.125799
vt 0.891173 0.125812
vt 0.891340 0.067982
vt 0.914113 0.067965
vt 0.941956 0.189331
vt 0.918848 0.189329
vt 0.919016 0.131499
vt 0.941789 0.131497
vt 0.653165 0.446250
vt 0.653165 0.431905
vt 0.694448 0.431913
vt 0.694448 0.446261
vt 0.662378 0.425980
vt 0.685235 0.425987
vt 0.653165 0.362918
vt 0.662378 0.368844
vt 0.694448 0.362921
vt 0.685235 0.368846
vt 0.662378 0.356993
vt 0.685235 0.356995
vt 0.653165 0.293932
vt 0.662378 0.299857
vt 0.694448 0.293929
vt 0.685235 0.299854
vt 0.662378 0.288006
vt 0.685235 0.288004
vt 0.653165 0.224946
vt 0.662378 0.230870
vt 0.694448 0.224936
vt 0.685235 0.230862
vt 0.662378 0.219020
vt 0.685235 0.219012
vt 0.653165 0.155959
vt 0.662378 0.161883
vt 0.694448 0.155944
vt 0.685235 0.161871
vt 0.662378 0.150033
vt 0.685235 0.150020
vt 0.653165 0.086973
vt 0.662378 0.092896
vt 0.694448 0.086952
vt 0.685235 0.092879
vt 0.662378 0.081046
vt 0.685235 0.081029
vt 0.653165 0.017987
vt 0.662378 0.023910
vt 0.694448 0.017960
vt 0.685235 0.023887
vt 0.653165 0.003638
vt 0.694448 0.003612
vt 0.914067 0.190010
vt 0.891173 0.190017
vt 0.891173 0.132788
vt 0.914067 0.132775
vt 0.941742 0.252207
vt 0.918848 0.252210
vt 0.918848 0.194981
vt 0.941742 0.194973
vt 0.047610 0.043375
vt 0.001881 0.003248
vt 0.047610 0.003248
vt 0.047610 0.057724
vt 0.001881 0.264605
vt 0.297504 0.003248
vt 0.265039 0.043375
vt 0.047610 0.126710
vt 0.047610 0.195696
vt 0.047610 0.264682
vt 0.047610 0.333669
vt 0.047610 0.402655
vt 0.047610 0.471641
vt 0.001881 0.525963
vt 0.047610 0.485986
vt 0.047610 0.525963
vt 0.265039 0.485986
vt 0.297504 0.525963
vt 0.552510 0.524707
vt 0.552510 0.484742
vt 0.598240 0.524707
vt 0.302616 0.524707
vt 0.335081 0.484742
vt 0.552510 0.470393
vt 0.598240 0.263349
vt 0.552510 0.401401
vt 0.552510 0.332409
vt 0.552510 0.263417
vt 0.552510 0.194425
vt 0.552510 0.125433
vt 0.552510 0.056441
vt 0.552510 0.042093
vt 0.598240 0.001992
vt 0.552510 0.001992
vt 0.335081 0.042093
vt 0.302616 0.001992
vt 0.292892 0.769066
vt 0.292877 0.984721
vt 0.819626 0.552320
vt 0.818694 0.781317
vt 0.630822 0.532489
vt 0.628559 0.771573
vt 0.001881 0.532865
vt 0.001890 0.761803
vt 0.462748 0.531935
vt 0.462804 0.775578
vt 0.860939 0.304142
vt 0.861147 0.543317
vn 0.000000 0.000000 1.000000
vn 0.000000 0.000000 1.000000
vn 0.000000 0.000000 1.000000
vn -0.226749 0.973953 0.000044
vn -0.226749 0.973953 0.000044
vn -0.226749 0.973953 0.000044
vn -0.226749 0.973953 0.000044
vn 0.000000 0.000000 -1.000000
vn 0.000000 0.000000 -1.000000
vn 0.000000 0.000000 -1.000000
vn 0.000000 -1.000000 0.000000
vn 0.000000 -1.000000 0.000000
vn 0.000000 -1.000000 0.000000
vn 0.000000 -1.000000 0.000000
vn 1.000000 0.000000 0.000000
vn 1.000000 0.000000 0.000000
vn 1.000000 0.000000 0.000000
vn 1.000000 0.000000 0.000000
vn -1.000000 0.000000 0.000000
vn -1.000000 0.000000 0.000000
vn -1.000000 0.000000 0.000000
vn -1.000000 0.000000 0.000000
vn -0.629099 0.777325 -0.000199
vn -0.629099 0.777325 -0.000199
vn -0.629099 0.777325 -0.000199
vn -0.629099 0.777325 -0.000199
vn 0.630460 0.776222 -0.000087
vn 0.630460 0.776222 -0.000087
vn 0.630460 0.776222 -0.000087
vn 0.630460 0.776222 -0.000087
vn 0.000000 0.000000 1.000000
vn 0.000000 0.000000 1.000000
vn 0.000000 0.000000 1.000000
vn 0.000000 0.000000 -1.000000
vn 0.000000 0.000000 -1.000000
vn 0.000000 0.000000 -1.000000
vn 0.000000 0.000000 -1.000000
vn 0.000000 0.000000 -1.000000
vn 0.000000 0.000000 -1.000000
vn 0.000000 0.000000 1.000000
vn 0.000000 0.000000 1.000000
vn 0.000000 0.000000 1.000000
vn 1.000000 0.000000 0.000000
vn 1.000000 0.000000 0.000000
vn 1.000000 0.000000 0.000000
vn 1.000000 0.000000 0.000000
vn 0.000000 0.000000 -1.000000
vn 0.000000 0.000000 -1.000000
vn 0.000000 0.000000 -1.000000
vn 0.000000 0.000000 -1.000000
vn -1.000000 0.000000 -0.000631
vn -1.000000 0.000000 -0.000631
vn -1.000000 0.000000 -0.000631
vn -1.000000 0.000000 -0.000631
vn 0.000000 0.000000 1.000000
vn 0.000000 0.000000 1.000000
vn 0.000000 0.000000 1.000000
vn 0.000000 0.000000 1.000000
vn -1.000000 0.000000 0.000000
vn -1.000000 0.000000 0.000000
vn -1.000000 0.000000 0.000000
vn -1.000000 0.000000 0.000000
vn 0.000000 0.000000 1.000000
vn 0.000000 0.000000 1.000000
vn 0.000000 0.000000 1.000000
vn 0.000000 0.000000 1.000000
vn 1.000000 0.000000 -0.000275
vn 1.000000 0.000000 -0.000275
vn 1.000000 0.000000 -0.000275
vn 1.000000 0.000000 -0.000275
vn 0.000000 0.000000 -1.000000
vn 0.000000 0.000000 -1.000000
vn 0.000000 0.000000 -1.000000
vn 0.000000 0.000000 -1.000000
vn 0.000000 0.000000 1.000000
vn 0.000000 0.000000 1.000000
vn 0.226749 0.973953 0.000196
vn 0.226749 0.973953 0.000196
vn 0.226749 0.973953 0.000196
vn 0.226749 0.973953 0.000196
vn 0.000000 0.000000 -1.000000
vn 0.000000 0.000000 -1.000000
vn 0.000000 -1.000000 0.000000
vn 0.000000 -1.000000 0.000000
vn 0.000000 0.000000 -1.000000
vn 0.175902 0.984408 0.000115
vn 0.175902 0.984408 0.000115
vn 0.175902 0.984408 0.000115
vn 0.175902 0.984408 0.000115
vn 0.000000 0.000000 1.000000
vn 0.000000 0.000000 1.000000
vn -0.175902 0.984408 -0.000003
vn -0.175902 0.984408 -0.000003
vn -0.175902 0.984408 -0.000003
vn -0.175902 0.984408 -0.000003
vn 0.000000 0.000000 -1.000000
vn 0.000000 1.000000 0.000000
vn 0.000000 1.000000 0.000000
vn 0.000000 1.000000 -0.000000
vn 0.000000 1.000000 0.000000
vn 0.000000 1.000000 -0.000000
vn 0.000000 1.000000 0.000000
vn 0.000000 1.000000 0.000000
vn 0.000000 1.000000 0.000000
vn 0.000000 0.000000 -1.000000
vn 0.080649 0.996743 0.000035
vn 0.080649 0.996743 0.000035
vn 0.080649 0.996743 0.000035
vn 0.080649 0.996743 0.000035
vn 0.000000 0.000000 1.000000
vn -0.080650 0.996743 -0.000018
vn -0.080650 0.996743 -0.000018
vn -0.080650 0.996743 -0.000018
vn -0.080650 0.996743 -0.000018
vn 0.000000 1.000000 0.000000
vn 0.000000 1.000000 -0.000001
vn 0.000000 1.000000 0.000000
vn 0.000000 1.000000 0.000000
vn 0.000000 1.000000 -0.000000
vn 0.000000 1.000000 -0.000001
vn 0.000000 1.000000 -0.000000
vn 0.000000 1.000000 0.000000
vn 0.000000 1.000000 0.000000
vn 0.000000 1.000000 -0.000001
vn 0.000000 1.000000 0.000000
vn 0.000000 1.000000 -0.000001
vn 0.000000 1.000000 -0.000000
vn 0.000000 1.000000 -0.000000
vn 0.000000 1.000000 0.000000
vn 0.000000 1.000000 -0.000000
vn 0.000000 1.000000 0.000000
vn 0.000000 1.000000 -0.000000
vn 0.000000 1.000000 -0.000000
vn 0.000000 1.000000 0.000000
vn 0.000000 1.000000 -0.000000
vn 0.000000 1.000000 -0.000000
vn 0.000000 1.000000 -0.000000
vn 0.000000 1.000000 0.000000
vn 0.000000 1.000000 -0.000000
vn 0.000000 1.000000 -0.000000
vn 0.000000 1.000000 -0.000000
vn 0.000000 1.000000 -0.000000
vn 0.000000 1.000000 -0.000000
vn 0.000000 1.000000 -0.000000
vn 0.000000 1.000000 -0.000000
vn 0.000000 1.000000 -0.000000
vn 0.000000 1.000000 -0.000000
vn 0.000000 1.000000 -0.000000
vn -1.000000 0.000000 0.000297
vn -1.000000 0.000000 0.000297
vn -1.000000 0.000000 0.000297
vn -1.000000 0.000000 0.000297
vn 0.000000 0.000000 1.000000
vn 0.000000 0.000000 1.000000
vn 0.000000 0.000000 1.000000
vn 0.000000 0.000000 1.000000
vn 1.000000 0.000000 -0.000090
vn 1.000000 0.000000 -0.000090
vn 1.000000 0.000000 -0.000090
vn 1.000000 0.000000 -0.000090
vn 0.000000 0.000000 -1.000000
vn 0.000000 0.000000 -1.000000
vn 0.000000 0.000000 -1.000000
vn 0.000000 0.000000 -1.000000
vn -1.000000 0.000000 -0.000758
vn -1.000000 0.000000 -0.000758
vn -1.000000 0.000000 -0.000758
vn -1.000000 0.000000 -0.000758
vn 0.000000 0.000000 1.000000
vn 0.000000 0.000000 1.000000
vn 0.000000 0.000000 1.000000
vn 0.000000 0.000000 1.000000
vn 1.000000 0.000000 0.000968
vn 1.000000 0.000000 0.000968
vn 1.000000 0.000000 0.000968
vn 1.000000 0.000000 0.000968
vn 0.000000 0.000000 -1.000000
vn 0.000000 0.000000 -1.000000
vn 0.000000 0.000000 -1.000000
vn 0.000000 0.000000 -1.000000
vn -1.000000 0.000000 -0.000545
vn -1.000000 0.000000 -0.000545
vn -1.000000 0.000000 -0.000545
vn -1.000000 0.000000 -0.000545
vn 0.000000 0.000000 1.000000
vn 0.000000 0.000000 1.000000
vn 0.000000 0.000000 1.000000
vn 0.000000 0.000000 1.000000
vn 1.000000 0.000000 0.000758
vn 1.000000 0.000000 0.000758
vn 1.000000 0.000000 0.000758
vn 1.000000 0.000000 0.000758
vn 0.000000 0.000000 -1.000000
vn 0.000000 0.000000 -1.000000
vn 0.000000 0.000000 -1.000000
vn 0.000000 0.000000 -1.000000
vn -1.000000 0.000000 0.000091
vn -1.000000 0.000000 0.000091
vn -1.000000 0.000000 0.000091
vn -1.000000 0.000000 0.000091
vn -0.000000 0.000000 1.000000
vn -0.000000 0.000000 1.000000
vn -0.000000 0.000000 1.000000
vn -0.000000 0.000000 1.000000
vn 1.000000 0.000000 0.000123
vn 1.000000 0.000000 0.000123
vn 1.000000 0.000000 0.000123
vn 1.000000 0.000000 0.000123
vn 0.000000 0.000000 -1.000000
vn 0.000000 0.000000 -1.000000
vn 0.000000 0.000000 -1.000000
vn 0.000000 0.000000 -1.000000
vn -1.000000 0.000000 -0.000333
vn -1.000000 0.000000 -0.000333
vn -1.000000 0.000000 -0.000333
vn -1.000000 0.000000 -0.000333
vn -0.000000 0.000000 1.000000
vn -0.000000 0.000000 1.000000
vn -0.000000 0.000000 1.000000
vn -0.000000 0.000000 1.000000
vn 1.000000 0.000000 0.000545
vn 1.000000 0.000000 0.000545
vn 1.000000 0.000000 0.000545
vn 1.000000 0.000000 0.000545
vn -0.000000 0.000000 -1.000000
vn -0.000000 0.000000 -1.000000
vn -0.000000 0.000000 -1.000000
vn -0.000000 0.000000 -1.000000
vn -1.000000 0.000000 -0.000120
vn -1.000000 0.000000 -0.000120
vn -1.000000 0.000000 -0.000120
vn -1.000000 0.000000 -0.000120
vn 0.000000 0.000000 1.000000
vn 0.000000 0.000000 1.000000
vn 0.000000 0.000000 1.000000
vn 0.000000 0.000000 1.000000
vn 1.000000 0.000000 0.000333
vn 1.000000 0.000000 0.000333
vn 1.000000 0.000000 0.000333
vn 1.000000 0.000000 0.000333
vn 0.000000 0.000000 -1.000000
vn 0.000000 0.000000 -1.000000
vn 0.000000 0.000000 -1.000000
vn 0.000000 0.000000 -1.000000
s 1
g pCube8
usemtl initialShadingGroup
f 10/145/1 2/146/2 4/147/3
s off
f 61/73/4 62/74/5 63/75/6 64/76/7
s 2
f 5/163/8 12/164/9 7/165/10
s 3
f 7/77/11 24/78/12 21/79/13 1/80/14
s off
f 2/1/15 8/2/16 6/3/17 4/4/18
f 7/7/19 1/8/20 3/9/21 5/10/22
f 13/17/23 14/18/24 15/16/25 16/15/26
f 18/23/27 17/24/28 19/22/29 20/21/30
s 1
f 1/158/31 9/159/32 3/160/33
s 2
f 24/169/34 29/168/35 28/170/36
f 8/177/37 11/176/38 6/178/39
s 1
f 30/157/40 21/149/41 27/156/42
s off
f 4/4/43 6/3/44 14/5/45 13/6/46
f 6/178/47 11/176/48 15/179/49 14/180/50
f 11/13/51 10/14/52 16/15/53 15/16/54
f 10/145/55 4/147/56 13/150/57 16/151/58
f 5/10/59 3/9/60 17/11/61 18/12/62
f 3/160/63 9/159/64 19/161/65 17/162/66
f 9/19/67 12/20/68 20/21/69 19/22/70
f 12/164/71 5/163/72 18/166/73 20/167/74
s 1
f 26/152/75 21/149/41 31/148/76
s off
f 65/83/77 66/84/78 67/85/79 68/86/80
s 2
f 24/169/34 25/174/81 32/175/82
s 3
f 21/79/13 24/78/12 8/81/83 2/82/84
s 2
f 24/169/34 33/173/85 25/174/81
s off
f 69/87/86 70/88/87 71/89/88 72/90/89
s 1
f 34/153/90 21/149/41 26/152/75
f 27/156/42 21/149/41 35/155/91
s off
f 74/91/92 73/92/93 75/93/94 76/94/95
s 2
f 24/169/34 28/170/36 36/171/96
f 7/165/10 12/164/9 29/168/35 24/169/34
s 8
f 9/95/97 30/96/98 29/97/99 12/98/100
s 1
f 1/158/31 21/149/41 30/157/40 9/159/32
f 31/148/76 21/149/41 2/146/2 10/145/1
s 8
f 32/133/101 31/131/102 10/135/103 11/136/104
s 2
f 24/169/34 32/175/82 11/176/38 8/177/37
f 24/169/34 23/172/105 33/173/85
s off
f 78/137/106 77/138/107 79/139/108 80/140/109
s 1
f 22/154/110 21/149/41 34/153/90
f 35/155/91 21/149/41 22/154/110
s off
f 82/141/111 81/142/112 83/143/113 84/144/114
s 2
f 24/169/34 36/171/96 23/172/105
s 8
f 29/97/99 30/96/98 38/99/115 37/100/116
f 30/96/98 27/101/117 39/102/118 38/99/115
f 27/101/117 28/103/119 40/104/120 39/102/118
f 28/103/119 29/97/99 37/100/116 40/104/120
f 25/127/121 26/125/122 42/129/123 41/130/124
f 26/125/122 31/131/102 43/132/125 42/129/123
f 31/131/102 32/133/101 44/134/126 43/132/125
f 32/133/101 25/127/121 41/130/124 44/134/126
f 33/121/127 34/119/128 46/123/129 45/124/130
f 34/119/128 26/125/122 47/126/131 46/123/129
f 26/125/122 25/127/121 48/128/132 47/126/131
f 25/127/121 33/121/127 45/124/130 48/128/132
f 28/103/119 27/101/117 49/105/133 50/106/134
f 27/101/117 35/107/135 51/108/136 49/105/133
f 35/107/135 36/109/137 52/110/138 51/108/136
f 36/109/137 28/103/119 50/106/134 52/110/138
f 23/115/139 22/113/140 53/117/141 54/118/142
f 22/113/140 34/119/128 55/120/143 53/117/141
f 34/119/128 33/121/127 56/122/144 55/120/143
f 33/121/127 23/115/139 54/118/142 56/122/144
f 36/109/137 35/107/135 57/111/145 58/112/146
f 35/107/135 22/113/140 59/114/147 57/111/145
f 22/113/140 23/115/139 60/116/148 59/114/147
f 23/115/139 36/109/137 58/112/146 60/116/148
s off
f 37/25/149 38/26/150 62/27/151 61/28/152
f 38/26/153 39/29/154 63/32/155 62/27/156
f 39/29/157 40/30/158 64/31/159 63/32/160
f 40/30/161 37/181/162 61/182/163 64/31/164
f 41/33/165 42/34/166 66/35/167 65/36/168
f 42/34/169 43/37/170 67/40/171 66/35/172
f 43/37/173 44/38/174 68/39/175 67/40/176
f 44/38/177 41/183/178 65/184/179 68/39/180
f 45/41/181 46/42/182 70/43/183 69/44/184
f 46/42/185 47/45/186 71/48/187 70/43/188
f 47/45/189 48/46/190 72/47/191 71/48/192
f 48/46/193 45/185/194 69/186/195 72/47/196
f 50/49/197 49/50/198 73/51/199 74/52/200
f 49/187/201 51/53/202 75/56/203 73/188/204
f 51/53/205 52/54/206 76/55/207 75/56/208
f 52/54/209 50/49/210 74/52/211 76/55/212
f 54/57/213 53/58/214 77/59/215 78/60/216
f 53/58/217 55/61/218 79/64/219 77/59/220
f 55/61/221 56/62/222 80/63/223 79/64/224
f 56/62/225 54/189/226 78/190/227 80/63/228
f 58/65/229 57/66/230 81/67/231 82/68/232
f 57/66/233 59/69/234 83/72/235 81/67/236
f 59/69/237 60/70/238 84/71/239 83/72/240
f 60/70/241 58/191/242 82/192/243 84/71/244
