# Blender v2.79 (sub 0) OBJ File: 'field.blend'
# www.blender.org
mtllib field.mtl
o Cylinder
v -3.000000 0.000000 -0.252017
v -2.764154 0.000000 -0.500000
v -2.930923 0.000000 -0.427367
v 2.764154 -0.000000 -0.500000
v 3.000000 -0.000000 -0.252017
v 2.930923 -0.000000 -0.427367
v -2.764154 0.000000 0.500000
v -3.000000 0.000000 0.252017
v -2.930923 0.000000 0.427368
v 3.000000 -0.000000 0.252017
v 2.764154 -0.000000 0.500000
v 2.930923 -0.000000 0.427367
v -3.000000 0.085523 0.203886
v -2.764154 0.169677 0.404508
v -2.930923 0.145029 0.345748
v 3.000000 0.085523 0.203886
v 2.764154 0.169677 0.404508
v 2.930923 0.145029 0.345748
v -3.000000 0.138379 0.077878
v -2.764154 0.274544 0.154509
v -2.930923 0.234662 0.132064
v 3.000000 0.138379 0.077878
v 2.764154 0.274543 0.154509
v 2.930923 0.234662 0.132064
v -3.000000 0.138379 -0.077878
v -2.764154 0.274544 -0.154509
v -2.930923 0.234662 -0.132064
v 3.000000 0.138379 -0.077878
v 2.764154 0.274543 -0.154509
v 2.930923 0.234662 -0.132064
v -3.000000 0.085523 -0.203886
v -2.764154 0.169677 -0.404509
v -2.930923 0.145029 -0.345748
v 3.000000 0.085523 -0.203886
v 2.764154 0.169677 -0.404509
v 2.930923 0.145029 -0.345748
vt 0.076347 0.053145
vt 0.923655 0.053146
vt 0.923655 0.094697
vt 0.076347 0.094697
vt 0.923654 0.142059
vt 0.076347 0.142059
vt 0.923654 0.183611
vt 0.076347 0.183610
vt 0.100555 0.481144
vt 0.023303 0.481144
vt 0.030680 0.468036
vt 0.049993 0.459935
vt 0.073865 0.459935
vt 0.093178 0.468036
vt 0.147161 0.459935
vt 0.224413 0.459935
vt 0.217037 0.473042
vt 0.197724 0.481144
vt 0.173851 0.481144
vt 0.154538 0.473042
vt 0.923655 0.213452
vt 0.076347 0.213452
vt 0.076347 0.023303
vt 0.923654 0.023304
vt 0.049007 0.054270
vt 0.049007 0.028763
vt 0.023303 0.056986
vt 0.023303 0.041944
vt 0.950994 0.028764
vt 0.950994 0.054271
vt 0.976697 0.041945
vt 0.976697 0.056986
vt 0.049854 0.095504
vt 0.049854 0.059989
vt 0.029979 0.097455
vt 0.029979 0.076511
vt 0.950147 0.059990
vt 0.950147 0.095505
vt 0.970023 0.076512
vt 0.970023 0.097455
vt 0.050066 0.138619
vt 0.050066 0.098137
vt 0.031904 0.130314
vt 0.031904 0.106442
vt 0.949935 0.098137
vt 0.949935 0.138619
vt 0.968097 0.106442
vt 0.968097 0.130314
vt 0.049854 0.176766
vt 0.049854 0.141251
vt 0.029979 0.160244
vt 0.029979 0.139301
vt 0.950147 0.141251
vt 0.950147 0.176767
vt 0.970023 0.139301
vt 0.970023 0.160244
vt 0.049007 0.207992
vt 0.049007 0.182485
vt 0.023303 0.194811
vt 0.023303 0.179770
vt 0.950994 0.182486
vt 0.950994 0.207992
vt 0.976697 0.179770
vt 0.976697 0.194811
vt 0.023304 0.298061
vt 0.033890 0.271188
vt 0.059443 0.260059
vt 0.906766 0.260059
vt 0.932327 0.271191
vt 0.942914 0.298067
vt 0.942914 0.375320
vt 0.932327 0.402196
vt 0.906766 0.413328
vt 0.059451 0.413322
vt 0.033890 0.402190
vt 0.023303 0.375313
vn 0.0000 0.9222 0.3868
vn 0.0000 1.0000 0.0000
vn 0.0000 0.9222 -0.3868
vn -1.0000 -0.0000 0.0000
vn 1.0000 0.0000 0.0000
vn 0.0000 0.4904 -0.8715
vn 0.0000 0.4904 0.8715
vn -0.3549 0.4585 0.8148
vn -0.9112 0.2020 0.3590
vn 0.3549 0.4585 0.8148
vn 0.9112 0.2020 0.3590
vn -0.2630 0.8897 0.3732
vn -0.8463 0.4912 0.2061
vn 0.2630 0.8897 0.3732
vn 0.8463 0.4912 0.2060
vn -0.2326 0.9726 0.0000
vn -0.8125 0.5829 0.0000
vn 0.2326 0.9726 0.0000
vn 0.8125 0.5829 0.0000
vn -0.2630 0.8897 -0.3732
vn -0.8463 0.4912 -0.2061
vn 0.2630 0.8897 -0.3732
vn 0.8463 0.4912 -0.2061
vn -0.3549 0.4585 -0.8148
vn -0.9112 0.2020 -0.3590
vn 0.3549 0.4585 -0.8148
vn 0.9112 0.2020 -0.3590
vn -0.0000 -1.0000 0.0000
usemtl Material.001
s off
f 14/1/1 17/2/1 23/3/1 20/4/1
f 20/4/2 23/3/2 29/5/2 26/6/2
f 26/6/3 29/5/3 35/7/3 32/8/3
f 1/9/4 8/10/4 13/11/4 19/12/4 25/13/4 31/14/4
f 10/15/5 5/16/5 34/17/5 28/18/5 22/19/5 16/20/5
f 32/8/6 35/7/6 4/21/6 2/22/6
f 7/23/7 11/24/7 17/2/7 14/1/7
f 7/23/8 14/1/8 15/25/8 9/26/8
f 9/26/9 15/25/9 13/27/9 8/28/9
f 17/2/10 11/24/10 12/29/10 18/30/10
f 18/30/11 12/29/11 10/31/11 16/32/11
f 14/1/12 20/4/12 21/33/12 15/34/12
f 15/34/13 21/33/13 19/35/13 13/36/13
f 23/3/14 17/2/14 18/37/14 24/38/14
f 24/38/15 18/37/15 16/39/15 22/40/15
f 20/4/16 26/6/16 27/41/16 21/42/16
f 21/42/17 27/41/17 25/43/17 19/44/17
f 29/5/18 23/3/18 24/45/18 30/46/18
f 30/46/19 24/45/19 22/47/19 28/48/19
f 26/6/20 32/8/20 33/49/20 27/50/20
f 27/50/21 33/49/21 31/51/21 25/52/21
f 35/7/22 29/5/22 30/53/22 36/54/22
f 36/54/23 30/53/23 28/55/23 34/56/23
f 32/8/24 2/22/24 3/57/24 33/58/24
f 33/58/25 3/57/25 1/59/25 31/60/25
f 4/21/26 35/7/26 36/61/26 6/62/26
f 6/62/27 36/61/27 34/63/27 5/64/27
f 1/65/28 3/66/28 2/67/28 4/68/28 6/69/28 5/70/28 10/71/28 12/72/28 11/73/28 7/74/28 9/75/28 8/76/28
