# Blender v2.79 (sub 0) OBJ File: 'veggieBoxDoubleSides.blend'
# www.blender.org
mtllib veggieBoxDoubleSides.mtl
o Cube
v 0.717132 -0.032269 -1.330122
v 0.717132 -0.032269 1.330122
v -0.717132 -0.032269 1.330122
v -0.717132 -0.032269 -1.330122
v 0.717132 0.730625 -1.330120
v 0.717132 0.730625 1.330121
v -0.717132 1.332156 1.330119
v -0.717132 1.332156 -1.330120
v 0.717132 0.930625 -1.330120
v 0.717132 0.930625 1.330121
v -0.717132 1.601995 1.330119
v -0.717132 1.601995 -1.330120
v -0.717132 1.601995 1.330121
v -0.717132 1.601995 -1.330122
v -0.000000 0.954799 1.330120
v -0.000000 1.266310 1.330120
v 0.000000 0.954799 -1.330120
v 0.000000 1.266310 -1.330120
v 0.717132 0.730625 1.330120
v -0.717132 1.332156 1.330119
v 0.717132 0.930625 1.330120
v -0.717132 1.601995 1.330119
v 0.000000 0.954799 1.330120
v 0.000000 1.266310 1.330120
v 0.717132 0.730625 -1.330119
v -0.717132 1.332156 -1.330121
v 0.717132 0.930625 -1.330119
v -0.717132 1.601995 -1.330121
v -0.000000 0.954799 -1.330120
v -0.000000 1.266310 -1.330120
v -0.717132 1.332156 -1.330120
v -0.717132 1.332156 1.330120
v -0.717132 1.601995 -1.330122
v -0.717132 1.601995 1.330121
vt 0.784998 0.539110
vt 0.325405 0.539110
vt 0.325405 0.291321
vt 0.784998 0.291321
vt 0.018533 0.291321
vt 0.148339 0.291321
vt 0.148339 0.750915
vt 0.018533 0.750915
vt 0.725915 0.018533
vt 0.725915 0.150333
vt 0.266321 0.150333
vt 0.266321 0.018533
vt 0.142427 0.189062
vt 0.018533 0.254256
vt 0.018533 0.018533
vt 0.325405 0.811898
vt 0.325405 0.576175
vt 0.784998 0.576175
vt 0.784998 0.811898
vt 0.973704 0.018533
vt 0.973704 0.254256
vt 0.849809 0.189062
vt 0.670473 0.939119
vt 0.810324 0.932647
vt 0.787491 0.981382
vt 0.650695 0.981334
vt 0.613630 0.964082
vt 0.484993 0.981467
vt 0.462201 0.932714
vt 0.598997 0.932781
vt 0.784998 0.895582
vt 0.325405 0.895582
vt 0.325405 0.848964
vt 0.784998 0.848964
vt 0.938946 0.950140
vt 0.924287 0.981429
vt 0.345148 0.974879
vt 0.325405 0.932647
vt 0.288339 0.291321
vt 0.288339 0.750914
vt 0.613630 0.964082
vt 0.484993 0.981467
vt 0.462201 0.932714
vt 0.598997 0.932781
vt 0.345148 0.974879
vt 0.325405 0.932647
vt 0.670473 0.939119
vt 0.810324 0.932647
vt 0.787491 0.981382
vt 0.650695 0.981334
vt 0.938946 0.950140
vt 0.924287 0.981429
vt 0.784998 0.895582
vt 0.325405 0.895582
vt 0.325405 0.848964
vt 0.784998 0.848964
vn 0.0000 -1.0000 0.0000
vn 0.2984 0.9545 0.0000
vn 1.0000 0.0000 0.0000
vn -0.0000 0.0000 1.0000
vn -1.0000 -0.0000 -0.0000
vn 0.0000 0.0000 -1.0000
vn 0.4657 0.8850 0.0000
usemtl Material
s off
f 1/1/1 2/2/1 3/3/1 4/4/1
f 5/5/2 17/6/2 15/7/2 6/8/2
f 1/9/3 5/10/3 6/11/3 2/12/3
f 2/12/4 6/11/4 15/13/4 7/14/4 3/15/4
f 3/16/5 7/17/5 8/18/5 4/19/5
f 5/10/6 1/9/6 4/20/6 8/21/6 17/22/6
f 7/23/4 15/24/4 16/25/4 11/26/4
f 5/27/6 17/28/6 18/29/6 9/30/6
f 8/31/5 7/32/5 13/33/5 14/34/5
f 16/25/4 15/24/4 6/35/4 10/36/4
f 18/29/6 17/28/6 8/37/6 12/38/6
f 15/7/7 17/6/7 8/39/7 7/40/7
f 19/41/6 23/42/6 24/43/6 21/44/6
f 24/43/6 23/42/6 20/45/6 22/46/6
f 26/47/4 29/48/4 30/49/4 28/50/4
f 30/49/4 29/48/4 25/51/4 27/52/4
f 32/53/3 31/54/3 33/55/3 34/56/3
