# This file uses centimeters as units for non-parametric coordinates.

mtllib BEAN.mtl
g default
v 0.034164 0.003328 -0.032352
v 0.034164 0.003328 0.032352
v -0.021871 0.003328 -0.000000
v -0.021871 1.530157 -0.000000
v 0.034164 1.530157 -0.032352
v 0.034164 1.530156 0.032352
v -0.112688 0.311399 -0.030015
v -0.099046 0.270540 0.043627
v -0.112688 0.399138 -0.030015
v -0.099046 0.358280 0.043627
v -0.075064 0.394483 -0.118160
v -0.075064 0.482223 -0.118160
v -0.004938 0.499291 -0.151308
v -0.004938 0.587031 -0.151308
v 0.077154 0.613178 -0.106866
v 0.077154 0.700917 -0.106866
v 0.127411 0.714602 -0.036502
v 0.127411 0.802342 -0.036502
v 0.151065 0.840402 0.053544
v 0.151065 0.928142 0.053544
v 0.108194 0.966874 0.141083
v 0.108194 1.054614 0.141083
v 0.003748 1.108693 0.195492
v 0.003748 1.196432 0.195492
v -0.082023 1.235363 0.156158
v -0.082023 1.323103 0.156158
v -0.113714 1.356436 0.054399
v -0.113714 1.444176 0.054399
v -0.200552 0.103314 -0.201314
v -0.375628 0.175866 -0.026232
v -0.053747 0.004489 -0.013562
v -0.228822 0.077041 0.161520
v -0.158543 0.460037 -0.086599
v 0.036565 0.414049 -0.133570
v -0.210616 0.441700 -0.284943
v -0.015508 0.395712 -0.331915
v -0.326500 1.313341 0.248936
v -0.091075 1.365402 0.234400
v -0.352477 1.365347 0.014486
v -0.117052 1.417407 -0.000051
v -0.057111 1.131333 0.403473
v 0.136942 1.066834 0.367665
v -0.079438 1.176030 0.201972
v 0.114616 1.111531 0.166164
v 0.036723 0.040666 -0.039376
v 0.036723 0.040666 0.039376
v -0.031479 0.040666 -0.000000
v -0.031479 1.524454 -0.000000
v 0.036723 1.524454 -0.039376
v 0.036723 1.524454 0.039376
v 0.119679 0.889436 0.128889
v 0.292545 0.901464 0.158755
v 0.151516 0.849924 -0.039468
v 0.324381 0.861952 -0.009603
v 0.011048 0.669426 -0.144265
v 0.145100 0.699533 -0.034527
v 0.124740 0.641152 -0.275390
v 0.258792 0.671259 -0.165652
v -0.062062 0.345899 0.108241
v -0.134118 0.342393 -0.084590
v -0.246995 0.288734 0.178385
v -0.319051 0.285228 -0.014446
v 0.024107 0.128617 0.079355
v -0.192423 0.198660 -0.042209
v -0.116133 0.014092 0.263163
v -0.332663 0.084135 0.141600
v 0.067497 -0.003327 0.033143
v -0.089657 0.057458 0.228533
v 0.260392 0.122897 0.149023
v 0.103238 0.183681 0.344413
v 0.025692 0.015154 0.084424
v 0.104638 0.136455 0.298018
v 0.260607 0.043427 -0.018459
v 0.339553 0.164728 0.195135
v 0.155131 0.187889 -0.217619
v 0.005997 0.089005 -0.403495
v -0.008824 0.099530 -0.039068
v -0.157957 0.000645 -0.224944
v 0.086190 0.111241 0.020841
v 0.319841 0.027774 -0.049936
v 0.025997 0.152580 -0.226620
v 0.259648 0.069113 -0.297397
vt 0.070016 0.002688
vt 0.100449 0.002688
vt 0.100448 0.720848
vt 0.070021 0.720845
vt 0.954311 0.442228
vt 0.990676 0.422369
vt 0.990806 0.465031
vt 0.954311 0.485127
vt 0.910708 0.524525
vt 0.908971 0.483783
vt 0.798640 0.637866
vt 0.800710 0.678810
vt 0.759717 0.739993
vt 0.757817 0.698778
vt 0.836150 0.588838
vt 0.838474 0.629339
vt 0.716711 0.801489
vt 0.714684 0.760380
vt 0.621462 0.890788
vt 0.622840 0.932468
vt 0.573222 0.991863
vt 0.572249 0.949805
vt 0.221079 0.720369
vt 0.184037 0.720361
vt 0.184183 0.022453
vt 0.221225 0.022461
vt 0.054757 0.747204
vt 0.039597 0.720841
vt 0.388536 0.154470
vt 0.388538 0.033114
vt 0.509895 0.033116
vt 0.509893 0.154473
vt 0.014763 0.890086
vt 0.108416 0.890086
vt 0.108416 0.984254
vt 0.014763 0.984254
vt 0.141834 0.849168
vt 0.141834 0.735783
vt 0.255215 0.735783
vt 0.255215 0.849168
vt 0.225979 0.981359
vt 0.129952 0.981359
vt 0.129952 0.885332
vt 0.225979 0.885332
vt 0.327912 0.895428
vt 0.328231 0.979112
vt 0.246285 0.979633
vt 0.245109 0.897258
vt 0.032070 0.770817
vt 0.114675 0.773327
vt 0.113786 0.855275
vt 0.031059 0.854325
vt 0.267118 0.743502
vt 0.358382 0.743502
vt 0.358382 0.833503
vt 0.267118 0.833503
vt 0.660215 0.325844
vt 0.538860 0.325277
vt 0.539427 0.203921
vt 0.660782 0.204488
vt 0.239761 0.311578
vt 0.239761 0.197748
vt 0.353591 0.197748
vt 0.353591 0.311578
vt 0.395556 0.196532
vt 0.511701 0.196532
vt 0.511701 0.312677
vt 0.395556 0.312677
vt 0.009122 0.002691
vt 0.039566 0.002689
vt 0.009172 0.720840
vt 0.878165 0.574279
vt 0.875661 0.534192
vt 0.665091 0.870618
vt 0.663074 0.829516
vt 0.146994 0.720353
vt 0.147141 0.022446
vt 0.109951 0.720345
vt 0.110099 0.022438
vt 0.647928 0.031736
vt 0.647928 0.137556
vt 0.542108 0.137556
vt 0.542108 0.031736
vt 0.340267 0.056990
vt 0.340267 0.164130
vt 0.233128 0.164130
vt 0.233128 0.056990
vn 0.000001 1.000000 0.000000
vn 0.000001 1.000000 0.000000
vn 0.000001 1.000000 0.000000
vn -0.499997 0.000000 -0.866027
vn -0.499997 0.000000 -0.866027
vn -0.499997 0.000000 -0.866027
vn -0.499997 0.000000 -0.866027
vn -0.499997 0.000000 0.866027
vn -0.499997 0.000000 0.866027
vn -0.499997 0.000000 0.866027
vn -0.499997 0.000000 0.866027
vn 1.000000 0.000000 0.000000
vn 1.000000 0.000000 0.000000
vn 1.000000 0.000000 0.000000
vn 1.000000 0.000000 0.000000
vn -0.983271 0.000000 0.182150
vn -0.983271 0.000000 0.182150
vn -0.983271 0.000000 0.182150
vn -0.983271 0.000000 0.182150
vn -0.919719 0.000000 -0.392577
vn -0.919719 0.000000 -0.392577
vn -0.919719 0.000000 -0.392577
vn -0.919719 0.000000 -0.392577
vn -0.427356 0.000000 -0.904083
vn -0.427356 0.000000 -0.904083
vn -0.427356 0.000000 -0.904083
vn -0.427356 0.000000 -0.904083
vn 0.476073 0.000000 -0.879406
vn 0.476073 0.000000 -0.879406
vn 0.748675 0.000000 -0.662937
vn 0.556561 0.000000 -0.830807
vn 0.945558 0.000000 -0.325453
vn 0.857118 0.000000 -0.515120
vn 0.967188 0.000000 -0.254062
vn 0.967188 0.000000 -0.254062
vn 0.898086 0.000000 0.439821
vn 0.898086 0.000000 0.439821
vn 0.898085 0.000000 0.439821
vn 0.898085 0.000000 0.439821
vn 0.462001 0.000000 0.886880
vn 0.462001 0.000000 0.886880
vn 0.462001 0.000000 0.886880
vn 0.462001 0.000000 0.886880
vn -0.416851 0.000000 0.908975
vn -0.416850 0.000000 0.908975
vn -0.416851 0.000000 0.908975
vn -0.416850 0.000000 0.908975
vn -0.954768 0.000000 0.297352
vn -0.954768 0.000000 0.297352
vn -0.954768 0.000000 0.297352
vn -0.954768 0.000000 0.297352
vn 0.464544 0.879896 0.099908
vn 0.464544 0.879896 0.099908
vn 0.464544 0.879896 0.099908
vn 0.464544 0.879896 0.099908
vn 0.194869 0.970657 -0.140896
vn 0.194869 0.970657 -0.140896
vn 0.194869 0.970657 -0.140896
vn 0.194869 0.970657 -0.140896
vn -0.196234 0.952468 0.233018
vn -0.196234 0.952468 0.233018
vn -0.196234 0.952468 0.233018
vn -0.196234 0.952468 0.233018
vn 0.338687 0.925809 0.167838
vn 0.338687 0.925809 0.167838
vn 0.338687 0.925809 0.167838
vn 0.338687 0.925809 0.167838
vn -0.499997 0.000000 -0.866027
vn -0.499997 0.000000 -0.866027
vn -0.499997 0.000000 -0.866027
vn -0.499997 0.000000 -0.866027
vn -0.499997 0.000000 0.866027
vn -0.499997 0.000000 0.866027
vn -0.499997 0.000000 0.866027
vn -0.499997 0.000000 0.866027
vn 1.000000 0.000000 0.000000
vn 1.000000 0.000000 0.000000
vn 1.000000 0.000000 0.000000
vn 1.000000 0.000000 0.000000
vn -0.027331 0.972023 -0.233292
vn -0.027331 0.972023 -0.233292
vn -0.027331 0.972023 -0.233292
vn -0.027331 0.972023 -0.233292
vn -0.027331 0.972023 -0.233292
vn -0.027331 0.972023 -0.233292
vn -0.027331 0.972023 -0.233292
vn -0.027331 0.972023 -0.233292
vn -0.265856 0.960529 0.081879
vn -0.265856 0.960529 0.081879
vn -0.265856 0.960529 0.081879
vn -0.265856 0.960529 0.081879
vn -0.015735 0.853974 0.520078
vn -0.015735 0.853974 0.520078
vn -0.015735 0.853974 0.520078
vn -0.015735 0.853974 0.520078
vn -0.264674 0.839739 -0.474117
vn -0.264674 0.839739 -0.474117
vn -0.264674 0.839738 -0.474117
vn -0.264674 0.839739 -0.474117
vn -0.278187 0.875762 -0.394529
vn -0.278187 0.875762 -0.394529
vn -0.278187 0.875762 -0.394529
vn -0.278187 0.875762 -0.394529
vn -0.511948 0.857806 -0.045595
vn -0.511948 0.857806 -0.045595
vn -0.511948 0.857806 -0.045595
vn -0.511948 0.857806 -0.045595
vn 0.354230 0.932563 0.069625
vn 0.354230 0.932563 0.069625
vn 0.354230 0.932563 0.069625
vn 0.354230 0.932563 0.069625
s off
g pCone3
usemtl initialShadingGroup
f 5/27/1 4/28/2 6/4/3
f 1/69/4 3/70/5 4/28/6 5/71/7
f 3/70/8 2/1/9 6/4/10 4/28/11
f 2/1/12 1/2/13 5/3/14 6/4/15
f 7/5/16 8/6/17 10/7/18 9/8/19
f 7/5/20 9/8/21 12/9/22 11/10/23
f 11/10/24 12/9/25 14/72/26 13/73/27
s 1
f 13/73/28 14/72/29 16/16/30 15/15/31
f 15/15/31 16/16/30 18/12/32 17/11/33
f 17/11/33 18/12/32 20/13/34 19/14/35
s off
f 19/14/36 20/13/37 22/17/38 21/18/39
f 21/18/40 22/17/41 24/74/42 23/75/43
f 23/75/44 24/74/45 26/20/46 25/19/47
f 25/19/48 26/20/49 28/21/50 27/22/51
f 29/29/52 30/30/53 32/31/54 31/32/55
f 33/33/56 34/34/57 36/35/58 35/36/59
f 37/37/60 38/38/61 40/39/62 39/40/63
f 41/41/64 42/42/65 44/43/66 43/44/67
f 45/24/68 47/76/69 48/77/70 49/25/71
f 47/76/72 46/78/73 50/79/74 48/77/75
f 46/23/76 45/24/77 49/25/78 50/26/79
f 51/45/80 52/46/81 54/47/82 53/48/83
f 55/49/84 56/50/85 58/51/86 57/52/87
f 59/53/88 60/54/89 62/55/90 61/56/91
f 63/80/92 64/81/93 66/82/94 65/83/95
f 67/57/96 68/58/97 70/59/98 69/60/99
f 71/61/100 72/62/101 74/63/102 73/64/103
f 75/84/104 76/85/105 78/86/106 77/87/107
f 79/65/108 80/66/109 82/67/110 81/68/111
