# Blender v2.79 (sub 0) OBJ File: 'rockPath.blend'
# www.blender.org
mtllib rockPath.mtl
o Icosphere
v 0.878675 -0.000000 0.745012
v -0.326026 -0.000000 1.068479
v -1.117177 -0.000000 -0.003199
v -0.389630 -0.000000 -1.213839
v 0.969583 -0.000000 -0.770929
v 0.226850 0.122901 0.698184
v -0.524461 0.167863 0.369296
v -0.503801 0.162716 -0.431498
v 0.226850 0.144018 -0.772528
v 0.575464 0.204911 -0.000000
v 0.205762 0.269521 -0.028767
vn 0.5073 0.8612 0.0304
vn 0.1290 0.8674 0.4805
vn -0.4416 0.8359 0.3260
vn -0.4033 0.8824 -0.2424
vn 0.1651 0.8461 -0.5068
vn 0.1679 0.9659 0.1973
vn -0.0500 0.9678 0.2466
vn -0.2649 0.9642 -0.0130
vn -0.0747 0.9741 -0.2135
vn 0.1882 0.9688 -0.1613
vn 0.1545 0.9693 0.1910
vn -0.0282 0.9797 0.1984
vn -0.1433 0.9896 -0.0101
vn -0.0530 0.9844 -0.1676
vn 0.1819 0.9704 -0.1586
vn 0.0000 -1.0000 0.0000
usemtl None
s off
f 1//1 5//1 10//1
f 2//2 1//2 6//2
f 3//3 2//3 7//3
f 4//4 3//4 8//4
f 5//5 4//5 9//5
f 1//6 10//6 6//6
f 2//7 6//7 7//7
f 3//8 7//8 8//8
f 4//9 8//9 9//9
f 5//10 9//10 10//10
f 6//11 10//11 11//11
f 7//12 6//12 11//12
f 8//13 7//13 11//13
f 9//14 8//14 11//14
f 10//15 9//15 11//15
f 1//16 2//16 3//16 4//16 5//16
